PathFileType	4	(X/Y/Z)	none_P007_Squats1_0-2550.trc
DataRate	CameraRate	NumFrames	NumMarkers	Units	OrigDataRate	OrigDataStartFrame	OrigNumFrames
85	85	5	21	m	85	2231	2550
Frame#	Time	RHip			RKnee			RAnkle			RBigToe			RSmallToe			RHeel			LHip			LKnee			LAnkle			LBigToe			LSmallToe			LHeel			Neck			Head			Nose			RShoulder			RElbow			RWrist			LShoulder			LElbow			LWrist		
		X1	Y1	Z1	X2	Y2	Z2	X3	Y3	Z3	X4	Y4	Z4	X5	Y5	Z5	X6	Y6	Z6	X7	Y7	Z7	X8	Y8	Z8	X9	Y9	Z9	X10	Y10	Z10	X11	Y11	Z11	X12	Y12	Z12	X13	Y13	Z13	X14	Y14	Z14	X15	Y15	Z15	X16	Y16	Z16	X17	Y17	Z17	X18	Y18	Z18	X19	Y19	Z19	X20	Y20	Z20	X21	Y21	Z21
2232	26.258823529411764	0.8308030188912702	0.758754862556673	0.40669612622117907	0.6002863555949883	0.44609716360803087	0.33939309974354065	0.7116492577826553	0.0700706837888859	0.36515429526682186	0.5251534717346182	0.01143489293907073	0.3293414423537392	0.5902174461139984	0.01713640595967099	0.2928534918980102	0.740695376494942	0.030695777483846047	0.38472631303594756	0.7959478711672086	0.7617724793028681	0.6201035502440169	0.59384186370883	0.45047425403904545	0.6778716510324941	0.7012803264209349	0.06324614473117296	0.6558025811888489	0.5457734947799402	0.014987832320476561	0.6980843833461149	0.5845905421561746	0.02111232758798772	0.7251317971917562	0.7511062092643939	0.02413982276347761	0.6372322619189735	0.5319784244908519	1.172861336256558	0.49805117217807476	0.3032351021739258	1.3782991504676696	0.4839236592617243	0.36271965867895073	1.1898221386387573	0.4810937341422336	0.5863419127987742	1.1553931015858727	0.36111591344185084	0.8214846094236224	1.0772625939310165	0.3602909727045716	0.6897373117266198	1.1779231842772384	0.28461940150160686	0.562398916346529	1.1516109749036736	0.6355561498394885	0.7746915119978108	1.0667024665034852	0.7050057630610209	0.6374203548652482	1.1638255526553756	0.7609835328271181
2233	26.27058823529412	0.83213945504033	0.7532981870237969	0.4073070008548445	0.5962941405117909	0.444971063766103	0.33804246435315616	0.7102647854960343	0.06991895113578209	0.36463643750381414	0.5245930346345336	0.011264368435390389	0.3293948310874768	0.5906989785190118	0.01711171547725851	0.29283922394588874	0.7405398019201704	0.030784015982015422	0.3845607899091157	0.7922771701566778	0.7562445839702222	0.6186377474495997	0.589808701030619	0.4480186043712534	0.6779884152713844	0.7013676939816628	0.0629424356599426	0.655830690251288	0.5462594575208911	0.014912809252353068	0.6983191661177113	0.5857146579175759	0.020727273000869965	0.7251774830323887	0.7512234868607391	0.02404749247565526	0.6372626500819021	0.531731471117867	1.1655736276441178	0.49793638947737134	0.3023172125540492	1.3709048782682467	0.48338701799080874	0.36224323876520215	1.1826981616978967	0.48184707694331586	0.5858689661352162	1.148388932336419	0.3605799823618359	0.8156862390264428	1.070842721953702	0.3579590226725663	0.6780948642301358	1.1718960380943721	0.2797032143619024	0.5627169275994015	1.1448043782681734	0.6354328014780971	0.7760399106437402	1.0589822736403636	0.7036932520293653	0.638146278622131	1.1562184219398421	0.7609990002761898
2234	26.28235294117647	0.8328454098662883	0.7474805145628352	0.40769588560351566	0.592075223277676	0.44391808379048414	0.3367097982542165	0.708727176500469	0.06971530348529853	0.3640479745794434	0.524050185161146	0.010998815609609875	0.32941338338191767	0.5912248798057853	0.01707327797484693	0.29279629646711647	0.7404957078089189	0.030791680275992668	0.3843876300321561	0.7900982448069841	0.7507983420061786	0.6175398961061584	0.5861735483870091	0.44537617412722746	0.6780360443734411	0.7016244614652463	0.06259434186682984	0.6558601013016834	0.5467113534821239	0.014893765377766089	0.698567956299523	0.5871632543666598	0.020312584643050708	0.7251824024740862	0.7512853518880288	0.023907878710584005	0.637369330594716	0.531647748399148	1.1584706917964436	0.49784260380848044	0.3013610702598375	1.3636805028189083	0.4826233859522134	0.36202212093971675	1.1754547264213429	0.48279902810573316	0.5856888708546463	1.1412710707039948	0.3597945312378297	0.8098395453609004	1.0643611903892487	0.3557976666024489	0.6680395302807876	1.1658496829865834	0.27602938560424667	0.5628969448229257	1.1378826859687035	0.6353392937918622	0.7775026686951519	1.0516127838629281	0.7023532754126126	0.6390029944806023	1.1486430741695919	0.7610753661287462
2235	26.294117647058822	0.8327997333191357	0.7413469508550247	0.40778019668762766	0.587793720307491	0.44292038758706925	0.33542224112916913	0.7073619612745962	0.0694558724671991	0.3634967290627415	0.5235703520159196	0.010648931260621282	0.3293803279084359	0.5918774447484776	0.01701751911208342	0.2927038241517468	0.740600469656302	0.030745417826910853	0.3842359526061738	0.7894237043544022	0.7454148101136882	0.6168526130737934	0.5829354835575145	0.442656531568495	0.6779955499925395	0.7020414417044404	0.06220535869814339	0.655862548201379	0.547160615189017	0.014935548804395527	0.6988229628893546	0.5890042080006986	0.019879713055121977	0.7251381353504337	0.7513274568809994	0.023740253566027204	0.6374908266221676	0.5317307930505797	1.151487682978341	0.4977715457121015	0.3003429605257672	1.3565129373236187	0.48170079486210987	0.36201447300451506	1.1679045798175962	0.48376670163779545	0.5856823596792882	1.13395844764289	0.35893089657433713	0.8029364207476174	1.0582237832223402	0.35329338638661606	0.659224427215738	1.1596978413522898	0.27325350818561345	0.5630576716773535	1.13081169030494	0.6352194787177522	0.7785289794114796	1.0447269253028093	0.7014456549958404	0.6398541433752625	1.141275558612843	0.7612127624405688
2236	26.305882352941172	0.8320009681760794	0.7350041177032719	0.4075504970893477	0.5836598481138605	0.44192422213903537	0.33421398923643536	0.7062860677176108	0.06912755664762757	0.36302847235448077	0.523229536517965	0.010255121957371875	0.3292860368428453	0.5926900608788488	0.016946007907035036	0.29254796006159545	0.7408357366870832	0.030672977082414406	0.3841048534268721	0.7900063439223812	0.7400235460644351	0.6165530359629674	0.5800163458519001	0.4400101536637778	0.6779202279174742	0.7025553060547223	0.06179563655286855	0.6558336301955258	0.5476412471485008	0.015024716493035557	0.699048181158176	0.5911791215846356	0.019451678632415446	0.725050709222045	0.7513762469280258	0.023571830042438076	0.6375914078392723	0.5319128325698206	1.1445396120415092	0.4977098977449565	0.2992793599086761	1.3492779013206535	0.48077426402409407	0.36212784006937093	1.1600585881160002	0.48455414012977815	0.5856879953993676	1.1264696832271042	0.3581599131790009	0.7942753191215692	1.0528094350536954	0.35007148221619183	0.6519074666933508	1.1533799639056206	0.27123254734010604	0.563295638919277	1.1236151127605145	0.6350849277740088	0.7788859915087818	1.0382756188855355	0.70119334231851	0.6405161270078082	1.1342631785877582	0.761342600125959
